P2
# CREATOR: GIMP PNM Filter Version 1.1
16 16
255
255
255
255
255
205
128
50
50
50
50
50
51
103
255
255
255
255
129
252
232
143
13
103
128
128
50
0
25
0
64
103
255
255
255
152
60
136
171
0
64
57
24
50
50
50
127
50
50
255
172
13
45
0
255
205
223
127
61
205
205
52
64
205
25
255
165
131
182
152
223
228
203
216
191
90
255
57
0
0
128
205
207
148
167
170
173
255
208
208
252
250
255
200
32
64
255
205
205
239
132
139
188
179
192
192
176
176
210
224
127
64
255
255
5
230
67
142
184
182
255
247
206
211
90
58
228
128
255
255
4
56
230
160
189
176
190
188
169
176
172
162
240
128
255
255
50
0
27
255
201
184
181
189
189
176
203
215
128
128
255
255
0
0
0
255
255
173
61
203
156
160
56
26
50
255
255
255
128
0
0
0
230
242
255
152
191
128
0
255
128
128
255
255
50
40
103
20
103
255
191
103
255
32
64
255
50
205
255
255
0
128
64
25
25
25
25
25
50
103
205
103
25
255
255
255
50
0
255
255
165
41
26
103
40
50
50
128
128
255
255
255
255
50
0
0
50
50
128
50
205
255
255
255
255
255
255
