P2
# CREATOR: GIMP PNM Filter Version 1.1
64 64
255
255
255
255
255
255
255
255
255
255
255
255
255
255
255
255
255
255
255
255
255
255
255
255
255
255
255
255
255
255
255
255
255
255
255
255
255
255
255
255
255
255
255
255
255
255
255
255
255
255
255
255
255
255
255
255
255
255
255
255
255
255
255
255
255
255
255
255
255
255
255
255
255
255
255
255
255
255
255
255
255
255
255
255
255
255
255
255
255
255
255
255
255
255
255
255
255
255
255
255
255
255
255
255
255
255
255
255
255
255
255
255
255
255
255
255
255
255
255
255
255
255
255
255
255
255
255
255
255
255
255
255
255
255
255
255
255
255
255
255
255
255
255
255
255
255
255
255
255
255
255
255
255
255
255
255
255
255
255
255
255
255
255
255
255
255
255
255
255
255
255
255
255
255
255
255
255
255
255
255
255
255
255
255
255
255
255
255
255
255
255
255
255
255
255
255
255
255
255
255
255
255
255
255
255
255
255
255
255
255
255
255
255
255
255
255
255
255
255
255
255
255
255
255
255
255
255
255
255
255
255
255
255
255
255
255
255
255
255
255
255
255
255
255
255
255
255
255
255
255
255
255
255
255
255
255
255
255
255
255
255
255
255
255
255
255
255
255
255
255
255
255
255
255
255
255
255
255
255
255
255
255
255
255
255
255
255
255
255
255
255
255
255
255
255
255
255
255
255
255
255
255
255
255
255
255
255
255
255
255
255
255
255
255
255
255
255
255
255
255
255
255
255
255
255
255
255
255
255
255
255
255
255
255
255
255
255
255
255
255
255
255
255
255
255
255
255
255
255
255
255
255
255
255
255
255
255
255
255
255
255
255
255
255
255
255
255
255
255
255
255
255
255
255
255
255
255
255
255
255
255
255
255
255
255
255
255
253
245
245
245
245
245
245
245
244
253
245
231
232
232
232
232
232
232
231
249
240
223
225
225
225
225
225
225
225
223
245
255
255
255
255
255
255
255
255
255
255
255
255
255
255
255
255
255
255
255
255
255
255
255
255
255
255
255
255
255
255
255
255
255
252
208
209
209
209
209
209
210
209
224
234
149
153
151
150
151
151
151
148
191
220
118
121
120
119
119
120
120
119
118
162
253
255
255
255
255
255
255
255
255
255
255
255
255
255
255
255
255
255
255
255
255
255
255
255
255
255
255
255
255
255
255
255
255
255
235
200
207
206
206
206
206
206
206
241
176
144
147
147
147
147
147
145
150
224
142
113
115
115
114
114
114
114
111
121
224
255
255
255
255
255
255
255
255
255
255
255
255
255
255
255
255
255
255
255
255
255
255
255
255
255
255
255
255
255
255
255
255
255
255
215
205
206
206
206
206
206
205
217
242
146
146
147
146
146
146
146
143
173
228
107
114
114
113
113
113
113
114
113
147
255
255
255
255
255
255
255
255
255
255
255
255
255
255
255
255
255
255
255
255
255
255
255
255
255
255
255
255
255
255
255
255
255
255
245
202
207
205
205
205
205
207
206
241
206
142
146
145
145
145
145
147
146
223
183
110
114
113
113
113
113
113
113
115
196
255
255
255
255
255
255
255
255
255
255
255
255
255
255
255
255
255
255
255
255
255
255
255
255
255
255
255
255
255
255
255
255
255
255
221
202
205
205
205
205
205
204
209
246
153
146
145
145
145
145
145
145
156
237
117
114
113
113
113
113
113
113
110
135
245
255
255
255
255
255
255
255
255
255
255
255
255
255
255
255
255
255
255
255
255
255
255
255
255
255
255
255
255
255
255
255
255
254
248
201
204
203
203
203
203
204
203
225
212
136
145
143
143
143
143
144
143
194
190
105
113
112
111
111
111
112
113
110
182
255
255
255
255
255
255
255
255
255
255
255
255
255
255
255
255
255
255
255
255
255
255
255
255
255
255
255
255
255
255
255
255
249
255
220
201
205
203
203
203
203
202
205
239
167
143
143
143
143
143
143
143
152
227
136
111
111
111
111
111
111
111
110
122
226
255
255
255
255
255
255
255
255
255
255
255
255
255
255
255
255
255
255
255
255
255
255
255
255
255
255
255
255
255
255
255
252
242
247
199
203
202
202
202
202
202
202
217
222
140
144
141
141
141
142
142
140
180
209
107
112
109
111
111
111
110
110
106
156
252
255
255
255
255
255
255
255
255
255
255
255
255
255
255
255
255
255
255
255
255
255
255
255
255
255
255
255
255
255
255
255
247
247
227
194
202
200
200
200
200
200
201
228
176
139
140
142
142
141
141
140
144
208
148
107
109
109
109
109
109
109
108
111
210
255
255
255
255
255
255
255
255
255
255
255
255
255
255
255
255
255
255
255
255
255
255
255
255
255
255
255
255
255
255
255
254
244
255
205
197
199
198
198
198
198
197
209
229
142
140
139
139
139
139
139
136
159
215
107
109
107
107
108
107
107
108
105
135
248
255
255
255
255
255
255
255
255
255
255
255
255
255
255
255
255
255
255
255
255
255
255
255
255
255
255
255
255
255
255
255
249
244
241
193
198
197
197
197
197
197
198
225
200
135
140
138
138
138
138
139
138
202
179
104
109
106
106
105
106
105
106
106
178
255
255
255
255
255
255
255
255
255
255
255
255
255
255
255
255
255
255
255
255
255
255
255
255
255
255
255
255
255
255
255
254
242
249
208
193
196
195
195
195
195
195
202
230
148
137
136
135
136
135
135
134
147
218
117
105
104
104
104
105
105
104
102
120
234
255
255
255
255
255
255
255
255
255
255
255
255
255
255
255
255
255
255
255
255
255
255
255
255
255
255
255
255
255
255
255
250
241
242
191
194
193
193
193
193
193
192
210
208
125
135
134
134
134
134
134
132
172
188
97
104
103
102
102
103
103
103
101
162
255
254
255
255
255
255
255
255
255
255
255
255
255
255
255
255
255
255
255
255
255
255
255
255
255
255
255
255
255
255
255
255
244
249
217
188
192
191
191
191
191
191
194
230
166
131
132
132
132
131
132
130
137
215
137
101
101
100
101
100
101
101
99
108
213
255
254
255
255
255
255
255
255
255
255
255
255
255
255
255
255
255
255
255
255
255
255
255
255
255
255
255
255
255
255
255
252
237
243
190
190
189
189
189
189
189
188
202
220
128
131
130
130
130
131
131
128
159
208
101
102
100
100
100
100
100
99
97
133
248
255
255
255
255
255
255
255
255
255
255
255
255
255
255
255
255
255
255
255
255
255
255
255
255
255
255
255
255
255
255
255
246
239
218
180
187
186
186
186
186
186
187
216
172
124
129
128
127
128
128
128
129
192
144
95
98
98
97
98
98
98
97
99
197
255
255
255
255
255
255
255
255
255
255
255
255
255
255
255
255
255
255
255
255
255
255
255
255
255
255
255
255
255
255
255
254
238
241
197
183
183
185
184
184
185
183
193
223
132
126
125
125
126
126
126
124
142
213
98
96
96
96
96
96
95
96
92
110
242
255
255
255
255
255
255
255
255
255
255
255
255
255
255
255
255
255
255
255
255
255
255
255
255
255
255
255
255
255
255
255
247
233
224
178
183
181
181
181
181
181
181
208
194
118
124
123
123
123
123
122
122
181
175
90
94
93
93
93
92
93
92
91
159
255
255
255
255
255
255
255
255
255
255
255
255
255
255
255
255
255
255
255
255
255
255
255
255
255
255
255
255
255
255
255
254
238
231
199
175
178
178
178
179
178
178
180
217
137
119
120
120
120
120
120
118
126
204
105
91
91
91
91
90
91
91
89
102
232
255
255
255
255
255
255
255
255
255
255
255
255
255
255
255
255
255
255
255
255
255
255
255
255
255
255
255
255
255
255
255
250
233
232
178
175
174
175
174
175
175
173
190
203
109
116
116
115
117
116
116
114
150
185
79
89
87
88
87
87
88
88
85
137
255
255
255
255
255
255
255
255
255
255
255
255
255
255
255
255
255
255
255
255
255
255
255
255
255
255
255
255
255
255
255
254
241
235
207
170
173
172
172
172
172
173
173
215
161
111
113
114
114
114
114
113
115
196
137
84
84
86
85
86
86
86
85
88
192
255
255
255
255
255
255
255
255
255
255
255
255
255
255
255
255
255
255
255
255
255
255
255
255
255
255
255
255
255
255
255
251
229
234
178
168
168
168
168
168
168
168
176
211
115
111
111
111
110
111
111
109
130
199
85
84
83
82
83
82
82
83
80
109
245
255
255
255
255
255
255
255
255
255
255
255
255
255
255
255
255
255
255
255
255
255
255
255
255
255
255
255
255
255
255
255
244
228
214
160
165
164
165
166
164
164
165
193
170
102
106
107
107
107
107
106
107
164
147
77
80
78
79
80
80
80
81
79
171
255
255
255
255
255
255
255
255
255
255
255
255
255
255
255
255
255
255
255
255
255
255
255
255
255
255
255
255
255
255
255
253
234
239
184
159
161
160
161
160
160
160
167
211
124
101
102
103
103
102
103
101
114
196
94
75
77
76
77
76
77
77
76
86
228
255
255
255
255
255
255
255
255
255
255
255
255
255
255
255
255
255
255
255
255
255
255
255
255
255
255
255
255
255
255
255
246
225
229
157
158
156
157
157
157
157
157
182
190
102
99
98
99
99
98
100
98
152
172
74
73
73
71
72
72
72
73
72
130
252
255
255
255
255
255
255
255
255
255
255
255
255
255
255
255
255
255
255
255
255
255
255
255
255
255
255
255
255
255
255
253
247
211
156
154
152
152
152
152
153
153
194
162
97
95
95
95
94
94
96
97
171
140
70
70
69
70
70
69
70
70
68
75
209
255
255
255
255
255
255
255
255
255
255
255
255
255
255
255
255
255
255
255
255
255
255
255
255
255
255
255
255
255
255
255
255
172
152
150
151
151
151
150
150
165
203
95
93
94
93
94
93
94
92
117
181
65
67
68
67
68
68
68
68
68
68
67
109
255
255
255
255
255
255
255
255
255
255
255
255
255
255
255
255
255
255
255
255
255
255
255
255
255
255
255
255
255
255
255
217
150
152
152
152
152
152
152
153
203
138
94
94
95
95
95
94
95
96
185
106
68
68
68
69
69
69
69
69
69
69
68
70
170
255
255
255
255
255
255
255
255
255
255
255
255
255
255
255
255
255
255
255
255
255
255
255
255
255
255
255
255
255
248
161
151
150
150
151
150
151
150
173
189
98
94
93
93
93
94
94
92
142
184
71
68
68
66
68
67
68
67
68
68
68
67
66
88
238
255
255
255
255
255
255
255
255
255
255
255
255
255
255
255
255
255
255
255
255
255
255
255
255
255
255
255
255
209
150
150
150
150
150
150
150
154
201
122
93
93
92
93
93
93
92
101
193
94
68
68
68
67
68
68
68
68
68
68
68
68
68
67
153
255
254
255
255
255
255
255
255
255
255
255
255
255
255
255
255
255
255
255
255
255
255
255
255
255
255
255
241
153
150
149
149
150
150
149
150
175
162
93
93
92
92
92
92
91
93
145
144
67
68
67
67
66
67
67
67
67
67
67
67
66
67
67
72
211
255
255
255
255
255
255
255
255
255
255
255
255
255
255
255
255
255
255
255
255
255
255
255
255
254
254
182
149
150
150
150
150
150
149
155
193
104
92
92
93
93
93
93
91
106
188
78
68
67
67
67
67
67
67
67
67
67
67
67
67
67
66
65
110
250
254
255
255
255
255
255
255
255
255
255
255
255
255
255
255
255
255
255
255
255
255
255
255
255
232
153
149
149
148
148
148
148
152
187
153
91
91
91
91
91
90
91
93
172
132
66
67
66
67
67
65
66
67
66
67
67
67
67
65
67
67
67
68
193
255
255
255
255
255
255
255
255
255
255
255
255
255
255
255
255
255
255
255
255
255
255
255
255
174
148
148
147
147
147
147
148
160
186
91
91
90
89
90
90
90
89
116
177
66
67
67
67
67
67
66
67
67
99
69
66
67
67
65
67
66
67
66
88
247
255
255
255
255
255
255
255
255
255
255
255
255
255
255
255
255
255
255
255
255
255
255
215
147
149
149
149
149
150
148
152
187
126
92
91
92
91
92
92
91
93
171
102
66
66
65
66
65
65
66
65
75
193
135
64
66
65
65
65
65
65
65
65
150
255
255
255
255
255
255
255
255
255
255
255
255
255
255
255
255
255
255
255
255
255
249
161
148
149
148
148
148
149
149
169
179
93
92
91
90
90
91
91
90
135
169
69
66
66
65
65
66
66
66
66
117
219
196
72
67
66
65
66
65
65
67
65
78
231
255
255
255
255
255
255
255
255
255
255
255
255
255
255
255
255
255
255
255
255
208
147
147
148
147
147
147
147
153
196
117
91
90
91
90
89
91
90
99
187
90
66
65
65
66
65
65
66
64
73
196
204
216
140
62
66
65
65
65
64
66
66
64
137
255
255
255
255
255
255
255
255
255
255
255
255
255
255
255
255
255
255
255
244
151
147
147
147
147
147
147
149
171
158
91
90
90
90
89
90
89
90
138
142
65
65
65
64
65
64
65
64
65
156
245
208
205
209
90
65
66
65
65
64
65
65
64
67
203
255
255
255
255
255
255
255
255
255
255
255
255
255
255
255
255
255
255
184
146
146
146
146
146
146
146
149
195
101
90
90
89
90
90
90
88
97
189
76
65
65
65
64
65
64
66
64
88
240
247
222
207
216
171
64
67
66
65
64
65
65
65
64
103
247
255
255
255
255
255
255
255
255
255
255
255
255
255
255
255
255
234
149
149
146
147
147
146
146
148
190
153
89
90
90
90
90
90
89
89
171
133
64
65
64
64
64
65
64
65
65
174
255
254
239
215
206
217
102
63
65
64
63
65
65
65
67
64
186
255
255
255
255
255
255
255
255
255
255
255
255
255
255
255
255
174
145
146
145
145
146
145
145
159
192
94
90
88
89
88
88
89
87
112
181
63
65
64
64
64
64
64
64
63
107
250
255
255
251
230
214
214
196
61
64
64
63
65
64
64
63
66
82
245
255
255
255
255
255
255
255
255
255
255
255
255
255
255
212
144
146
144
144
144
144
145
147
192
125
89
88
87
88
88
88
89
89
178
98
63
63
64
63
64
63
64
63
70
211
255
255
255
255
246
224
215
234
143
62
63
64
64
64
63
63
64
63
137
254
255
255
255
255
255
255
255
255
255
255
255
255
247
156
144
144
145
144
145
144
144
169
189
92
88
88
88
88
88
88
87
136
176
67
62
61
63
63
62
62
63
62
124
251
255
255
255
255
253
237
222
219
224
78
63
62
63
63
63
63
63
63
72
225
255
255
255
255
255
255
255
255
255
255
255
255
202
144
145
143
143
143
145
144
149
207
119
88
87
88
88
88
88
87
95
196
90
63
63
63
63
63
63
62
64
73
223
255
255
255
255
255
255
250
232
223
233
167
58
64
63
63
63
63
62
64
62
118
255
255
255
255
255
255
255
255
255
255
255
241
149
145
144
144
144
145
144
145
173
170
87
88
87
87
87
87
87
87
144
148
62
63
62
62
63
62
62
63
62
156
255
255
255
255
255
255
255
255
244
230
228
243
106
61
63
62
62
63
62
62
62
63
186
255
255
255
255
255
255
255
255
255
253
178
143
143
143
143
143
143
144
149
210
103
87
86
86
86
86
87
87
101
200
77
62
63
62
62
63
62
62
63
83
238
255
255
255
255
255
255
255
255
252
239
231
241
205
64
63
62
62
63
62
62
62
61
91
245
255
255
255
255
255
255
255
255
234
147
143
143
143
143
143
144
144
199
163
87
87
87
87
87
87
89
87
177
142
61
62
62
62
61
62
61
63
61
171
255
255
255
255
255
255
255
255
255
255
248
237
233
247
125
60
62
61
62
61
62
62
62
61
168
255
255
255
255
255
255
255
255
171
143
142
142
142
142
143
143
155
209
86
85
86
86
86
86
86
86
111
194
59
61
61
61
61
61
61
61
60
101
255
255
255
255
255
255
255
255
255
255
255
254
245
238
243
227
71
62
61
61
60
61
61
62
60
66
231
255
255
255
255
255
255
210
141
143
143
143
143
143
143
143
202
131
86
85
86
86
86
86
86
86
183
101
61
60
61
61
61
61
61
61
66
208
255
255
255
255
255
255
255
255
255
255
255
255
252
243
239
255
166
58
62
61
61
61
61
61
60
60
124
252
253
255
255
255
248
152
143
143
143
143
143
143
139
171
204
88
89
90
90
90
90
90
84
139
189
64
69
68
68
68
68
68
68
57
124
252
255
255
255
255
255
255
255
255
255
255
255
255
255
249
244
246
244
102
64
71
70
70
70
71
72
70
69
211
255
255
255
255
253
244
242
237
235
235
235
235
234
242
239
234
233
232
232
232
232
232
230
244
239
231
231
230
230
230
230
230
230
228
246
255
255
255
255
255
255
255
255
255
255
255
255
255
255
254
248
244
245
239
228
231
231
231
232
236
239
240
238
245
255
255
255
255
255
254
251
249
249
249
249
249
249
249
251
251
249
249
249
249
249
249
249
250
252
248
248
248
248
248
248
248
248
250
254
255
255
255
255
255
255
255
255
255
255
255
255
255
255
255
252
249
249
249
249
249
249
249
249
250
252
253
253
255
255
255
255
255
255
255
255
255
255
255
255
255
255
255
255
255
255
255
255
255
255
255
255
255
255
255
255
255
255
255
255
255
255
255
255
255
255
255
255
255
255
255
255
255
255
255
255
255
255
255
255
255
255
255
255
255
255
255
255
255
255
255
255
255
255
255
255
255
255
255
255
255
255
255
255
255
255
255
255
255
255
255
255
255
255
255
255
255
255
255
255
255
255
255
255
255
255
255
255
255
255
255
255
255
255
255
255
255
255
255
255
255
255
255
255
255
255
255
255
255
255
255
255
255
255
255
255
255
255
255
255
255
255
255
255
255
255
255
255
255
255
255
255
255
255
255
255
255
255
255
255
255
255
255
255
255
255
255
255
255
255
255
255
255
255
255
255
255
255
255
255
255
255
255
255
255
255
255
255
255
255
255
255
255
255
255
255
255
255
255
255
255
255
255
255
255
255
255
255
255
255
255
255
255
255
255
255
255
255
255
255
255
255
255
255
255
255
255
255
255
255
255
255
255
255
255
255
255
255
255
255
255
255
255
255
255
255
255
255
255
255
255
255
255
255
255
255
255
255
255
255
255
255
255
255
255
255
255
255
255
255
255
255
255
255
255
255
255
255
255
255
255
255
255
255
255
255
255
255
255
255
255
255
255
255
255
255
255
255
255
255
255
255
255
255
255
255
255
255
255
255
255
255
255
255
255
255
255
255
255
255
255
255
255
255
255
255
255
255
255
255
255
